<?xml version="1.0" encoding="UTF-8"?>
<!-- Created with Inkscape (http://www.inkscape.org/) -->
<svg width="29.088mm" height="28.108mm" version="1.1" viewBox="0 0 29.088 28.108" xmlns="http://www.w3.org/2000/svg" xmlns:cc="http://creativecommons.org/ns#" xmlns:dc="http://purl.org/dc/elements/1.1/" xmlns:rdf="http://www.w3.org/1999/02/22-rdf-syntax-ns#">
 <metadata>
  <rdf:RDF>
   <cc:Work rdf:about="">
    <dc:format>image/svg+xml</dc:format>
    <dc:type rdf:resource="http://purl.org/dc/dcmitype/StillImage"/>
    <dc:title/>
    <dc:title/>
   </cc:Work>
  </rdf:RDF>
 </metadata>
 <g transform="matrix(.85674 0 0 .85674 -54.606 -107.94)" stroke-width="1.1672">
  <g transform="matrix(1.1672 0 0 1.1672 -11.824 -31.428)">
   <path d="m79.278 134.87c-2.3048 0-4.6093 0.55704-6.736 1.6712-4.7674 2.4976-7.7998 7.432-7.8057 12.702-7e-3 5.944 3.7106 11.31 9.3415 13.485 0.64354 0.24859 0.9285 0.28589 1.111 0.14573 0.2418-0.18564 0.27388-0.37991 0.27388-1.6562v-1.2656l-0.40256 0.0532c-0.70215 0.0926-1.8359 0.0542-2.3787-0.0806-1.094-0.27173-1.7293-0.82813-2.3239-2.0335-0.46562-0.94386-0.86154-1.4416-1.479-1.8609-0.47209-0.32059-0.62632-0.51212-0.62632-0.77877 0-0.29523 0.22674-0.40876 0.81804-0.40876 0.9196 0 1.6866 0.42786 2.2996 1.2821 0.17103 0.23835 0.39801 0.55389 0.50436 0.70177 0.24577 0.34176 0.75925 0.72041 1.2283 0.90589 0.51385 0.20316 1.2614 0.19244 1.9012-0.0274l0.48576-0.16691 0.0925-0.41393c0.0509-0.22774 0.18683-0.58822 0.30179-0.80047 0.11495-0.21224 0.20929-0.40739 0.20929-0.43408 0-0.0267-0.1849-0.0696-0.41031-0.0951-1.0704-0.12109-2.4841-0.62883-3.3424-1.1999-1.7466-1.1622-2.6179-3.1361-2.6179-5.9325 0-1.61 0.36647-2.7821 1.2004-3.8411l0.20154-0.25683-0.11369-0.65371c-0.13867-0.79407-0.09832-1.6863 0.11472-2.5208 0.22858-0.89527 0.17728-0.85214 0.96686-0.80874 0.93513 0.0514 2.0519 0.4725 3.2034 1.2082l0.35812 0.22892 0.41186-0.0977c1.744-0.41304 4.664-0.41242 6.4244 1e-3l0.41238 0.0966 0.3576-0.22892c1.1544-0.73754 2.2682-1.1565 3.2091-1.2082l0.68058-0.0377 0.0801 0.20205c0.36084 0.90883 0.48722 2.1776 0.31523 3.1652l-0.11369 0.65371 0.20205 0.25632c0.83397 1.059 1.1999 2.2316 1.1999 3.8416 0 2.6752-0.82875 4.6664-2.4133 5.7971-0.88141 0.62896-2.1843 1.1254-3.4251 1.3048l-0.58498 0.0842 0.23358 0.42478c0.4114 0.74859 0.4474 1.053 0.44855 3.7641 7.91e-4 1.6584 0.02642 2.4846 0.08062 2.6035 0.0436 0.0957 0.17496 0.22083 0.29197 0.2775 0.19803 0.0959 0.25405 0.088 0.81235-0.10904 0.32977-0.1164 0.99368-0.40931 1.4754-0.65112 6.964-3.4966 9.9575-11.642 6.8425-18.621-1.3285-2.9763-3.6807-5.4768-6.5805-6.996-2.1267-1.1142-4.4318-1.6712-6.7365-1.6712z" style="paint-order:markers stroke fill"/>
  </g>
 </g>
</svg>
