<?xml version="1.0" encoding="UTF-8"?>
<!-- Created with Inkscape (http://www.inkscape.org/) -->
<svg width="29.509mm" height="24.276mm" version="1.1" viewBox="0 0 29.509 24.276" xmlns="http://www.w3.org/2000/svg" xmlns:cc="http://creativecommons.org/ns#" xmlns:dc="http://purl.org/dc/elements/1.1/" xmlns:rdf="http://www.w3.org/1999/02/22-rdf-syntax-ns#">
 <metadata>
  <rdf:RDF>
   <cc:Work rdf:about="">
    <dc:format>image/svg+xml</dc:format>
    <dc:type rdf:resource="http://purl.org/dc/dcmitype/StillImage"/>
    <dc:title/>
    <dc:title/>
   </cc:Work>
  </rdf:RDF>
 </metadata>
 <g transform="matrix(.85674 0 0 .85674 -52.767 -110.19)" stroke-width="1.1672">
  <g transform="matrix(1.1672 0 0 1.1672 -13.726 -31.046)">
   <path d="m85.017 136.79c-1.1589-2e-3 -1.8085 0.15706-2.8257 0.6935-1.7388 0.91728-2.8957 2.5091-3.1983 4.4002-0.0431 0.26937-0.06788 0.91527-0.05478 1.435l0.0248 0.94516-0.52503-0.0191c-0.73515-0.025-1.792-0.19301-2.4701-0.38964-0.31619-0.0919-0.84271-0.23945-1.17-0.32815-0.70071-0.19-2.0202-0.68131-2.1704-0.80822-0.0578-0.0488-0.34116-0.1995-0.62994-0.33537-0.98457-0.46285-2.384-1.3722-2.9884-1.942-0.19969-0.18843-0.39014-0.34261-0.42323-0.34261-0.1025 0-1.7679-1.6855-1.8805-1.9032-0.0769-0.14844-0.1488-0.19991-0.25942-0.18397-0.12063 0.0156-0.20335 0.14696-0.38551 0.60358-0.34562 0.86597-0.45454 1.5562-0.41548 2.6376 0.0469 1.2988 0.31416 2.175 0.92966 3.0484 0.14844 0.21062 0.36148 0.51794 0.47336 0.68316 0.11187 0.16531 0.37104 0.42463 0.57619 0.57619 0.42363 0.31294 0.489 0.39056 0.36535 0.43512-0.15344 0.0553-1.1383-0.14618-1.6356-0.33486-0.265-0.10062-0.55731-0.20085-0.65009-0.22273l-0.16898-0.0398 0.04547 0.53898c0.0575 0.67978 0.27586 1.5404 0.52142 2.0572 0.36175 0.76119 1.0778 1.6469 1.7803 2.2009 0.63213 0.49856 1.5161 0.9707 2.0019 1.0697 0.12907 0.025 0.21891 0.0828 0.2036 0.12815-0.0425 0.12781-0.71767 0.20037-1.5379 0.16537l-0.75241-0.0326v0.16846c0 0.25187 0.61127 1.4204 0.91002 1.74 0.14406 0.15406 0.39054 0.42439 0.54829 0.60048 0.34609 0.38641 1.5363 1.1459 2.1379 1.3643 0.39465 0.14312 0.75974 0.22528 1.5363 0.34675 0.14687 0.0219 0.25712 0.0685 0.24495 0.10077-0.13313 0.35669-2.6035 1.6721-3.7326 1.9875-1.3475 0.37631-3.0566 0.58343-4.1765 0.50643-1.1926-0.0819-1.0626 0.035 1.2718 1.1436 0.0962 0.0456 0.28489 0.14236 0.41961 0.21549 0.51325 0.27875 2.9751 0.99867 3.9708 1.1612 1.5336 0.25031 3.608 0.2729 5.3051 0.0579 0.98804-0.12522 1.4496-0.23219 3.1838-0.73949 1.5985-0.46756 4.5326-2.0998 5.4601-3.0375 0.17313-0.175 0.4095-0.37873 0.52503-0.45217 0.26501-0.16875 1.311-1.2971 1.7906-1.9322 0.20031-0.26531 0.42378-0.5457 0.49609-0.6227 0.1675-0.17844 0.82889-1.2091 0.82889-1.2919 0-0.0344 0.07689-0.15446 0.17157-0.26666 0.20843-0.2478 0.65277-1.1264 0.94981-1.8784 0.12031-0.30437 0.26137-0.6199 0.31368-0.70125 0.22094-0.34284 0.55668-1.5552 0.95705-3.4572 0.17907-0.85125 0.21901-1.2186 0.24495-2.2753 0.0187-0.76469 0.06334-1.3257 0.11369-1.4268 0.0456-0.0916 0.29778-0.33478 0.56069-0.54053 1.0534-0.82418 2.6371-2.7245 2.0965-2.5156-0.39563 0.15281-1.0624 0.35777-1.7679 0.54312-1.3801 0.36262-1.4469 0.34724-0.7767-0.17932 0.59537-0.46778 1.2511-1.2809 1.6335-2.0252 0.1825-0.35528 0.33243-0.66979 0.3328-0.69866 2e-3 -0.10094-0.24671-0.0491-0.52452 0.10904-0.15407 0.0878-0.5476 0.26547-0.87488 0.39532-0.32728 0.12968-0.63073 0.26298-0.67438 0.29611-0.0941 0.0716-1.134 0.37207-1.5208 0.43924-0.25218 0.0438-0.28951 0.0284-0.56017-0.25528-0.54759-0.57119-1.9161-1.3074-2.7885-1.5002-0.31585-0.0697-0.84685-0.11399-1.387-0.11524z" style="paint-order:markers stroke fill"/>
  </g>
 </g>
</svg>
